{
    "asset": {
        "generator": "FBX2glTF v0.9.7",
        "version": "2.0"
    },
    "scene": 0,
    "buffers": [
        {
            "byteLength": 8460,
            "uri": "buffer.bin"
        }
    ],
    "bufferViews": [
        {
            "buffer": 0,
            "byteLength": 1344,
            "byteOffset": 0,
            "target": 34963
        },
        {
            "buffer": 0,
            "byteLength": 1812,
            "byteOffset": 1344,
            "target": 34962
        },
        {
            "buffer": 0,
            "byteLength": 1812,
            "byteOffset": 3156,
            "target": 34962
        },
        {
            "buffer": 0,
            "byteLength": 1208,
            "byteOffset": 4968,
            "target": 34962
        },
        {
            "buffer": 0,
            "byteLength": 300,
            "byteOffset": 6176,
            "target": 34963
        },
        {
            "buffer": 0,
            "byteLength": 744,
            "byteOffset": 6476,
            "target": 34962
        },
        {
            "buffer": 0,
            "byteLength": 744,
            "byteOffset": 7220,
            "target": 34962
        },
        {
            "buffer": 0,
            "byteLength": 496,
            "byteOffset": 7964,
            "target": 34962
        }
    ],
    "scenes": [
        {
            "name": "Root Scene",
            "nodes": [
                0
            ]
        }
    ],
    "accessors": [
        {
            "componentType": 5123,
            "type": "SCALAR",
            "count": 672,
            "bufferView": 0,
            "byteOffset": 0
        },
        {
            "componentType": 5126,
            "type": "VEC3",
            "count": 151,
            "bufferView": 1,
            "byteOffset": 0,
            "min": [
                -0.00499999988824129,
                -0.00499999988824129,
                -0.00499999988824129
            ],
            "max": [
                0.00499999988824129,
                0.00499999988824129,
                0.00499999988824129
            ]
        },
        {
            "componentType": 5126,
            "type": "VEC3",
            "count": 151,
            "bufferView": 2,
            "byteOffset": 0
        },
        {
            "componentType": 5126,
            "type": "VEC2",
            "count": 151,
            "bufferView": 3,
            "byteOffset": 0
        },
        {
            "componentType": 5123,
            "type": "SCALAR",
            "count": 150,
            "bufferView": 4,
            "byteOffset": 0
        },
        {
            "componentType": 5126,
            "type": "VEC3",
            "count": 62,
            "bufferView": 5,
            "byteOffset": 0,
            "min": [
                -0.000808655517175794,
                0.00461853435263038,
                -0.000779833935666829
            ],
            "max": [
                0.000235161962336861,
                0.0064024543389678,
                0.000222889924771152
            ]
        },
        {
            "componentType": 5126,
            "type": "VEC3",
            "count": 62,
            "bufferView": 6,
            "byteOffset": 0
        },
        {
            "componentType": 5126,
            "type": "VEC2",
            "count": 62,
            "bufferView": 7,
            "byteOffset": 0
        }
    ],
    "images": [
        {
            "name": "xigua.png",
            "uri": "xigua.png"
        }
    ],
    "samplers": [
        {}
    ],
    "textures": [
        {
            "name": "xigua",
            "sampler": 0,
            "source": 0
        }
    ],
    "materials": [
        {
            "name": "watermelon01",
            "alphaMode": "OPAQUE",
            "extras": {
                "fromFBX": {
                    "shadingModel": "Lambert",
                    "isTruePBR": false
                }
            },
            "pbrMetallicRoughness": {
                "baseColorFactor": [
                    0.0230999998748302,
                    0.209999993443489,
                    0.0698250010609627,
                    1.0
                ],
                "metallicFactor": 0.200000002980232,
                "roughnessFactor": 0.800000011920929
            }
        },
        {
            "name": "watermelon",
            "alphaMode": "OPAQUE",
            "extras": {
                "fromFBX": {
                    "shadingModel": "Lambert",
                    "isTruePBR": false
                }
            },
            "pbrMetallicRoughness": {
                "baseColorTexture": {
                    "index": 0,
                    "texCoord": 0
                },
                "baseColorFactor": [
                    1.0,
                    1.0,
                    1.0,
                    1.0
                ],
                "metallicFactor": 0.200000002980232,
                "roughnessFactor": 0.800000011920929
            }
        }
    ],
    "meshes": [
        {
            "name": "watermelon",
            "primitives": [
                {
                    "material": 1,
                    "mode": 4,
                    "attributes": {
                        "NORMAL": 2,
                        "POSITION": 1,
                        "TEXCOORD_0": 3
                    },
                    "indices": 0
                },
                {
                    "material": 0,
                    "mode": 4,
                    "attributes": {
                        "NORMAL": 6,
                        "POSITION": 5,
                        "TEXCOORD_0": 7
                    },
                    "indices": 4
                }
            ]
        }
    ],
    "nodes": [
        {
            "name": "RootNode",
            "translation": [
                0.0,
                0.0,
                0.0
            ],
            "rotation": [
                0.0,
                0.0,
                0.0,
                1.0
            ],
            "scale": [
                1.0,
                1.0,
                1.0
            ],
            "children": [
                1
            ]
        },
        {
            "name": "watermelon",
            "translation": [
                0.0,
                0.0,
                0.0
            ],
            "rotation": [
                0.0,
                0.0,
                0.0,
                1.0
            ],
            "scale": [
                100.0,
                100.0,
                100.0
            ],
            "mesh": 0
        }
    ]
}